<mxfile host="65bd71144e">
    <diagram id="c8yjLa2ZMn0s89ok0FmQ" name="user">
        <mxGraphModel dx="576" dy="475" grid="1" gridSize="10" guides="1" tooltips="1" connect="1" arrows="1" fold="1" page="1" pageScale="1" pageWidth="850" pageHeight="1100" math="0" shadow="0">
            <root>
                <mxCell id="0"/>
                <mxCell id="1" parent="0"/>
                <mxCell id="wmv2y3ME5K-6Tk5ZAD-C-1" value="" style="rounded=1;whiteSpace=wrap;html=1;" parent="1" vertex="1">
                    <mxGeometry x="20" width="570" height="50" as="geometry"/>
                </mxCell>
                <mxCell id="wmv2y3ME5K-6Tk5ZAD-C-2" value="" style="rounded=0;whiteSpace=wrap;html=1;" parent="1" vertex="1">
                    <mxGeometry x="20" y="70" width="570" height="410" as="geometry"/>
                </mxCell>
                <mxCell id="xh2JPytaI7mhLbj_Giy--1" value="" style="rounded=1;whiteSpace=wrap;html=1;" parent="1" vertex="1">
                    <mxGeometry x="40" y="80" width="540" height="190" as="geometry"/>
                </mxCell>
                <mxCell id="xh2JPytaI7mhLbj_Giy--2" value="user" style="text;html=1;strokeColor=none;fillColor=none;align=center;verticalAlign=middle;whiteSpace=wrap;rounded=0;" parent="1" vertex="1">
                    <mxGeometry x="275" y="160" width="60" height="30" as="geometry"/>
                </mxCell>
                <mxCell id="xh2JPytaI7mhLbj_Giy--3" value="" style="rounded=1;whiteSpace=wrap;html=1;" parent="1" vertex="1">
                    <mxGeometry x="40" y="280" width="540" height="180" as="geometry"/>
                </mxCell>
                <mxCell id="xh2JPytaI7mhLbj_Giy--4" value="permition" style="text;html=1;strokeColor=none;fillColor=none;align=center;verticalAlign=middle;whiteSpace=wrap;rounded=0;" parent="1" vertex="1">
                    <mxGeometry x="280" y="360" width="60" height="30" as="geometry"/>
                </mxCell>
                <mxCell id="v6TFOjTqiF5R5D1Z8dPk-1" value="logo" style="text;html=1;strokeColor=none;fillColor=none;align=center;verticalAlign=middle;whiteSpace=wrap;rounded=0;" parent="1" vertex="1">
                    <mxGeometry x="30" y="10" width="60" height="30" as="geometry"/>
                </mxCell>
                <mxCell id="v6TFOjTqiF5R5D1Z8dPk-2" value="log out" style="text;html=1;strokeColor=none;fillColor=none;align=center;verticalAlign=middle;whiteSpace=wrap;rounded=0;" parent="1" vertex="1">
                    <mxGeometry x="520" y="10" width="60" height="30" as="geometry"/>
                </mxCell>
            </root>
        </mxGraphModel>
    </diagram>
    <diagram id="HIXfoEHYuvE5iieKf0Ww" name="setting">
        <mxGraphModel dx="576" dy="475" grid="1" gridSize="10" guides="1" tooltips="1" connect="1" arrows="1" fold="1" page="1" pageScale="1" pageWidth="850" pageHeight="1100" math="0" shadow="0">
            <root>
                <mxCell id="0"/>
                <mxCell id="1" parent="0"/>
                <mxCell id="vOF0-AkDNT8PMVsauIa8-1" value="" style="rounded=0;whiteSpace=wrap;html=1;" parent="1" vertex="1">
                    <mxGeometry x="10" width="580" height="50" as="geometry"/>
                </mxCell>
                <mxCell id="vOF0-AkDNT8PMVsauIa8-2" value="logo" style="text;html=1;strokeColor=none;fillColor=none;align=center;verticalAlign=middle;whiteSpace=wrap;rounded=0;" parent="1" vertex="1">
                    <mxGeometry x="20" y="10" width="60" height="30" as="geometry"/>
                </mxCell>
                <mxCell id="vOF0-AkDNT8PMVsauIa8-3" value="log out" style="text;html=1;strokeColor=none;fillColor=none;align=center;verticalAlign=middle;whiteSpace=wrap;rounded=0;" parent="1" vertex="1">
                    <mxGeometry x="520" y="10" width="60" height="30" as="geometry"/>
                </mxCell>
                <mxCell id="vOF0-AkDNT8PMVsauIa8-4" value="" style="rounded=1;whiteSpace=wrap;html=1;" parent="1" vertex="1">
                    <mxGeometry x="20" y="100" width="550" height="220" as="geometry"/>
                </mxCell>
                <mxCell id="vOF0-AkDNT8PMVsauIa8-5" value="logo" style="text;html=1;strokeColor=none;fillColor=none;align=center;verticalAlign=middle;whiteSpace=wrap;rounded=0;" parent="1" vertex="1">
                    <mxGeometry x="110" y="140" width="70" height="40" as="geometry"/>
                </mxCell>
                <mxCell id="vOF0-AkDNT8PMVsauIa8-6" value="address" style="text;html=1;strokeColor=none;fillColor=none;align=center;verticalAlign=middle;whiteSpace=wrap;rounded=0;" parent="1" vertex="1">
                    <mxGeometry x="460" y="145" width="60" height="30" as="geometry"/>
                </mxCell>
                <mxCell id="vOF0-AkDNT8PMVsauIa8-7" value="location" style="text;html=1;strokeColor=none;fillColor=none;align=center;verticalAlign=middle;whiteSpace=wrap;rounded=0;" parent="1" vertex="1">
                    <mxGeometry x="110" y="250" width="70" height="40" as="geometry"/>
                </mxCell>
                <mxCell id="vOF0-AkDNT8PMVsauIa8-8" value="phone" style="text;html=1;strokeColor=none;fillColor=none;align=center;verticalAlign=middle;whiteSpace=wrap;rounded=0;" parent="1" vertex="1">
                    <mxGeometry x="460" y="255" width="60" height="30" as="geometry"/>
                </mxCell>
            </root>
        </mxGraphModel>
    </diagram>
</mxfile>